<svg width="43" height="43" viewBox="0 0 43 43" fill="none" xmlns="http://www.w3.org/2000/svg">
<g clip-path="url(#clip0_278_241)">
<path d="M41.4519 33.7817C40.6032 33.5391 39.8304 33.0842 39.2063 32.4601C38.5821 31.836 38.1273 31.0632 37.8847 30.2145C37.7571 29.7689 37.4879 29.377 37.1177 29.0979C36.7476 28.8189 36.2967 28.668 35.8332 28.668C35.3697 28.668 34.9188 28.8189 34.5486 29.0979C34.1785 29.377 33.9093 29.7689 33.7817 30.2145C33.5391 31.0632 33.0842 31.836 32.4601 32.4601C31.836 33.0842 31.0632 33.5391 30.2145 33.7817C29.7689 33.9093 29.377 34.1785 29.0979 34.5486C28.8189 34.9188 28.668 35.3697 28.668 35.8332C28.668 36.2967 28.8189 36.7476 29.0979 37.1177C29.377 37.4879 29.7689 37.7571 30.2145 37.8847C31.0632 38.1273 31.836 38.5821 32.4601 39.2063C33.0842 39.8304 33.5391 40.6032 33.7817 41.4519C33.9093 41.8975 34.1785 42.2894 34.5486 42.5685C34.9188 42.8475 35.3697 42.9984 35.8332 42.9984C36.2967 42.9984 36.7476 42.8475 37.1177 42.5685C37.4879 42.2894 37.7571 41.8975 37.8847 41.4519C38.1273 40.6032 38.5821 39.8304 39.2063 39.2063C39.8304 38.5821 40.6032 38.1273 41.4519 37.8847C41.8975 37.7571 42.2894 37.4879 42.5685 37.1177C42.8475 36.7476 42.9984 36.2967 42.9984 35.8332C42.9984 35.3697 42.8475 34.9188 42.5685 34.5486C42.2894 34.1785 41.8975 33.9093 41.4519 33.7817Z" fill="#0A2E36"/>
<path d="M27.1204 5.11572C26.2714 4.87333 25.4982 4.41861 24.8738 3.79446C24.2493 3.17032 23.7942 2.39735 23.5514 1.54851C23.4238 1.1029 23.1546 0.710938 22.7845 0.431909C22.4144 0.152879 21.9635 0.00195312 21.4999 0.00195312C21.0364 0.00195312 20.5855 0.152879 20.2154 0.431909C19.8453 0.710938 19.5761 1.1029 19.4485 1.54851C19.2058 2.39715 18.751 3.16998 18.1269 3.7941C17.5027 4.41822 16.7299 4.87307 15.8813 5.11572C15.4357 5.2433 15.0437 5.5125 14.7647 5.88262C14.4856 6.25275 14.3347 6.70366 14.3347 7.16718C14.3347 7.6307 14.4856 8.08161 14.7647 8.45173C15.0437 8.82186 15.4357 9.09106 15.8813 9.21864C16.7299 9.46129 17.5027 9.91613 18.1269 10.5403C18.751 11.1644 19.2058 11.9372 19.4485 12.7858C19.5761 13.2315 19.8453 13.6234 20.2154 13.9024C20.5855 14.1815 21.0364 14.3324 21.4999 14.3324C21.9635 14.3324 22.4144 14.1815 22.7845 13.9024C23.1546 13.6234 23.4238 13.2315 23.5514 12.7858C23.7941 11.9372 24.2489 11.1644 24.873 10.5403C25.4971 9.91613 26.27 9.46129 27.1186 9.21864C27.5643 9.09125 27.9564 8.82222 28.2355 8.45222C28.5147 8.08222 28.6659 7.63137 28.6661 7.16785C28.6663 6.70434 28.5155 6.25336 28.2367 5.88311C27.9578 5.51287 27.566 5.24349 27.1204 5.11572Z" fill="#0A2E36"/>
<path d="M1.54591 37.8847C2.39454 38.1273 3.16737 38.5821 3.7915 39.2063C4.41562 39.8304 4.87046 40.6032 5.11312 41.4519C5.24069 41.8975 5.5099 42.2894 5.88002 42.5685C6.25014 42.8475 6.70106 42.9984 7.16457 42.9984C7.62809 42.9984 8.07901 42.8475 8.44913 42.5685C8.81925 42.2894 9.08846 41.8975 9.21603 41.4519C9.45869 40.6032 9.91353 39.8304 10.5377 39.2063C11.1618 38.5821 11.9346 38.1273 12.7832 37.8847C13.2289 37.7571 13.6208 37.4879 13.8998 37.1177C14.1789 36.7476 14.3298 36.2967 14.3298 35.8332C14.3298 35.3697 14.1789 34.9188 13.8998 34.5486C13.6208 34.1785 13.2289 33.9093 12.7832 33.7817C11.9346 33.5391 11.1618 33.0842 10.5377 32.4601C9.91353 31.836 9.45869 31.0632 9.21603 30.2145C9.08846 29.7689 8.81925 29.377 8.44913 29.0979C8.07901 28.8189 7.62809 28.668 7.16457 28.668C6.70106 28.668 6.25014 28.8189 5.88002 29.0979C5.5099 29.377 5.24069 29.7689 5.11312 30.2145C4.87062 31.063 4.41605 31.8356 3.79226 32.4598C3.16847 33.0839 2.396 33.5388 1.5477 33.7817C1.10203 33.9091 0.709952 34.1781 0.430761 34.5482C0.15157 34.9182 0.000446754 35.369 0.000244344 35.8325C4.19347e-05 36.296 0.150771 36.747 0.429639 37.1173C0.708507 37.4875 1.10035 37.7569 1.54591 37.8847Z" fill="#0A2E36"/>
<path d="M9.85425 26.875C11.3385 26.875 12.5417 25.6718 12.5417 24.1875C12.5417 22.7032 11.3385 21.5 9.85425 21.5C8.36998 21.5 7.16675 22.7032 7.16675 24.1875C7.16675 25.6718 8.36998 26.875 9.85425 26.875Z" fill="#0A2E36"/>
<path d="M2.6875 19.709C4.17177 19.709 5.375 18.5057 5.375 17.0215C5.375 15.5372 4.17177 14.334 2.6875 14.334C1.20323 14.334 0 15.5372 0 17.0215C0 18.5057 1.20323 19.709 2.6875 19.709Z" fill="#0A2E36"/>
<path d="M9.85425 12.541C11.3385 12.541 12.5417 11.3378 12.5417 9.85352C12.5417 8.36925 11.3385 7.16602 9.85425 7.16602C8.36998 7.16602 7.16675 8.36925 7.16675 9.85352C7.16675 11.3378 8.36998 12.541 9.85425 12.541Z" fill="#0A2E36"/>
<path d="M2.6875 5.375C4.17177 5.375 5.375 4.17177 5.375 2.6875C5.375 1.20323 4.17177 0 2.6875 0C1.20323 0 0 1.20323 0 2.6875C0 4.17177 1.20323 5.375 2.6875 5.375Z" fill="#0A2E36"/>
<path d="M40.3125 26.875C41.7968 26.875 43 25.6718 43 24.1875C43 22.7032 41.7968 21.5 40.3125 21.5C38.8282 21.5 37.625 22.7032 37.625 24.1875C37.625 25.6718 38.8282 26.875 40.3125 26.875Z" fill="#0A2E36"/>
<path d="M33.1458 19.709C34.63 19.709 35.8333 18.5057 35.8333 17.0215C35.8333 15.5372 34.63 14.334 33.1458 14.334C31.6615 14.334 30.4583 15.5372 30.4583 17.0215C30.4583 18.5057 31.6615 19.709 33.1458 19.709Z" fill="#0A2E36"/>
<path d="M40.3125 12.541C41.7968 12.541 43 11.3378 43 9.85352C43 8.36925 41.7968 7.16602 40.3125 7.16602C38.8282 7.16602 37.625 8.36925 37.625 9.85352C37.625 11.3378 38.8282 12.541 40.3125 12.541Z" fill="#0A2E36"/>
<path d="M33.1458 5.375C34.63 5.375 35.8333 4.17177 35.8333 2.6875C35.8333 1.20323 34.63 0 33.1458 0C31.6615 0 30.4583 1.20323 30.4583 2.6875C30.4583 4.17177 31.6615 5.375 33.1458 5.375Z" fill="#0A2E36"/>
<path d="M25.9792 43C27.4635 43 28.6667 41.7968 28.6667 40.3125C28.6667 38.8282 27.4635 37.625 25.9792 37.625C24.495 37.625 23.2917 38.8282 23.2917 40.3125C23.2917 41.7968 24.495 43 25.9792 43Z" fill="#0A2E36"/>
<path d="M18.8125 35.834C20.2968 35.834 21.5 34.6307 21.5 33.1465C21.5 31.6622 20.2968 30.459 18.8125 30.459C17.3282 30.459 16.125 31.6622 16.125 33.1465C16.125 34.6307 17.3282 35.834 18.8125 35.834Z" fill="#0A2E36"/>
<path d="M25.9792 28.666C27.4635 28.666 28.6667 27.4628 28.6667 25.9785C28.6667 24.4943 27.4635 23.291 25.9792 23.291C24.495 23.291 23.2917 24.4943 23.2917 25.9785C23.2917 27.4628 24.495 28.666 25.9792 28.666Z" fill="#0A2E36"/>
<path d="M18.8125 21.5C20.2968 21.5 21.5 20.2968 21.5 18.8125C21.5 17.3282 20.2968 16.125 18.8125 16.125C17.3282 16.125 16.125 17.3282 16.125 18.8125C16.125 20.2968 17.3282 21.5 18.8125 21.5Z" fill="#0A2E36"/>
</g>
<defs>
<clipPath id="clip0_278_241">
<rect width="43" height="43" fill="white"/>
</clipPath>
</defs>
</svg>
