<svg width="127" height="43" viewBox="0 0 127 43" fill="none" xmlns="http://www.w3.org/2000/svg">
<g clip-path="url(#clip0_232_217)">
<path d="M39.5875 41.206C37.0759 41.2209 34.6899 40.6279 32.319 39.9751C30.2143 39.3921 28.1598 38.6695 26.03 38.1413C23.3426 37.4786 20.6603 37.3789 17.9779 38.1164C16.3806 38.5549 14.9289 39.2376 13.6379 40.1794C12.9397 40.6927 11.9552 40.6578 11.3373 40.1246C10.7195 39.5914 10.6693 38.7343 11.267 38.1064C13.653 35.5999 16.687 34.1099 20.389 33.6913C22.7198 33.4272 24.9752 33.8159 27.2105 34.3491C27.6877 34.4637 28.1649 34.5883 28.6421 34.7129C28.7325 34.7378 28.848 34.8026 28.9183 34.7228C28.9887 34.6381 28.8832 34.5634 28.8329 34.4936C28.3206 33.7461 27.9237 32.9638 27.8484 32.0818C27.7931 31.4638 28.185 30.8609 28.8229 30.5918C29.4508 30.3277 30.2545 30.4373 30.7568 30.8758C30.9427 31.0353 31.1386 31.1997 31.2792 31.3891C32.2738 32.7495 33.7204 33.6066 35.353 34.2544C37.0709 34.9371 38.8692 35.3158 40.7528 35.3358C43.5959 35.3657 46.1276 34.5833 48.3529 33.0435C49.6036 32.1814 50.6735 31.1599 51.5928 30.0187C52.0298 29.4755 52.8234 29.2463 53.4965 29.4556C54.1747 29.6649 54.5614 30.1981 54.5464 30.8908C54.5363 31.4987 54.2751 32.0369 53.9888 32.5701C52.8536 34.6581 51.4672 36.5866 49.4831 38.1314C47.1121 39.9751 44.3695 41.0665 41.1899 41.2458C40.6524 41.2708 40.1199 41.2209 39.5875 41.206Z" fill="white"/>
<path d="M63.3067 30.6615C63.3067 33.7312 63.3067 36.9204 63.3067 40.1496C61.0714 40.1496 58.9416 40.1496 56.7515 40.1496C56.7415 39.8705 56.7164 39.6164 56.7164 39.3572C56.7164 33.0435 56.7063 26.7248 56.7164 20.4111C56.7264 14.217 61.7044 8.75043 67.918 8.03784C72.5945 7.50463 76.618 8.7903 79.7726 12.3084C85.2126 18.378 83.4646 27.6318 76.1911 31.414C73.3128 32.909 70.2638 33.492 67.1143 32.5402C65.7882 32.1465 64.5977 31.3143 63.3067 30.6615ZM69.6309 27.0437C73.3028 27.0836 76.3368 24.1485 76.382 20.5008C76.4272 16.898 73.4183 13.8831 69.7414 13.8383C66.1147 13.7934 63.0907 16.7435 63.0506 20.3613C63.0104 24.0439 65.9188 26.9989 69.6309 27.0437Z" fill="white"/>
<path d="M26.1958 17.3562C23.865 17.3562 21.7202 17.3712 19.5753 17.3363C19.3593 17.3313 19.083 17.0971 18.9474 16.8928C16.8477 13.7883 12.9447 12.9312 9.71989 14.8746C7.32887 16.3148 6.1183 19.2847 6.80145 22.0305C7.49464 24.7962 10.0062 26.8642 12.8091 27.0286C15.3558 27.1781 17.2697 26.1167 18.7414 24.1234C18.867 23.954 19.083 23.7347 19.2588 23.7347C21.4941 23.7098 23.7294 23.7148 26.0401 23.7148C25.4724 25.6582 24.5432 27.3127 23.202 28.7229C20.7658 31.2893 17.782 32.7045 14.2206 32.9237C9.86053 33.1928 6.12834 31.8225 3.21492 28.5834C-1.85342 22.9424 -0.813632 14.6703 5.43515 10.325C12.1963 5.6258 21.906 8.04763 25.3871 15.3131C25.6884 15.931 25.8944 16.5888 26.1958 17.3562Z" fill="white"/>
<path d="M28.9484 8.65527C31.1285 8.65527 33.2382 8.65527 35.4735 8.65527C35.4735 8.9443 35.4735 9.22336 35.4735 9.49743C35.4735 13.0853 35.4433 16.6732 35.4936 20.2611C35.5087 21.2528 35.6443 22.2694 35.9005 23.2311C36.5434 25.628 38.5326 27.0582 41.0391 27.0433C43.5306 27.0283 45.5147 25.5682 46.1326 23.1663C46.3687 22.2494 46.4792 21.2827 46.4892 20.3359C46.5294 16.748 46.5043 13.1601 46.5043 9.57218C46.5043 9.28814 46.5043 9.0041 46.5043 8.67521C48.7095 8.67521 50.8443 8.67521 53.0545 8.67521C53.0695 8.8546 53.1047 9.05891 53.1047 9.26322C53.1047 13.185 53.2152 17.1118 53.0746 21.0286C52.8988 25.7875 50.8543 29.5847 46.434 31.7574C40.2003 34.822 31.3143 32.3653 29.2649 23.6248C29.0489 22.7029 28.9334 21.7362 28.9283 20.7844C28.8882 16.9324 28.9133 13.0804 28.9133 9.23332C28.9082 9.06888 28.9283 8.90443 28.9484 8.65527Z" fill="white"/>
<path d="M87.8146 14.187C86.8502 14.187 86.0164 14.187 85.1423 14.187C85.1423 12.3183 85.1423 10.5144 85.1423 8.6357C86.0113 8.6357 86.8452 8.6357 87.7443 8.6357C87.9251 5.47137 89.2211 2.99472 91.9085 1.29047C94.0484 -0.064962 96.4042 -0.0799114 98.8957 0.0546349C98.8957 1.68912 98.9108 3.28375 98.8656 4.87837C98.8605 5.0179 98.4788 5.23716 98.2477 5.27204C97.1426 5.42652 96.143 5.78531 95.3192 6.54774C94.7516 7.07098 94.405 7.70384 94.41 8.59583C95.8868 8.59583 97.3435 8.59583 98.8505 8.59583C98.8505 10.4994 98.8505 12.2983 98.8505 14.172C97.3737 14.172 95.9371 14.172 94.395 14.172C94.395 20.2316 94.395 26.2164 94.395 32.2461C92.1597 32.2461 90.0299 32.2461 87.8146 32.2461C87.8146 26.2463 87.8146 20.2764 87.8146 14.187Z" fill="white"/>
<path d="M126.95 10.275C126.95 10.0707 126.92 9.86642 126.905 9.67706C124.699 9.67706 122.565 9.67706 120.354 9.67706C120.354 10.006 120.354 10.29 120.354 10.574C120.354 14.1619 120.375 17.7498 120.339 21.3377C120.329 22.2596 120.224 23.2064 119.998 24.0984C119.395 26.5402 117.411 28.0302 114.889 28.0501C112.358 28.07 110.373 26.6199 109.731 24.1732C109.484 23.2363 109.349 22.2447 109.339 21.273C109.293 17.6851 109.319 14.0972 109.319 10.5093C109.319 10.2352 109.319 9.95612 109.319 9.66211C107.088 9.66211 104.979 9.66211 102.799 9.66211C102.778 9.90629 102.753 10.0707 102.753 10.2352C102.753 14.0872 102.728 17.9392 102.768 21.7862C102.778 22.733 102.894 23.6998 103.11 24.6266C105.144 33.3472 114.02 35.8339 120.274 32.7692C120.284 32.7642 120.289 32.7592 120.294 32.7542C119.752 34.7176 118.179 36.4318 116.23 37.0448C113.824 37.8022 111.172 36.9949 109.565 35.0615C109.379 34.8372 109.017 34.6429 108.731 34.6329C106.822 34.5582 104.913 34.5382 103 34.5083C102.829 34.5033 102.658 34.5382 102.397 34.5631C102.623 35.1163 102.794 35.6096 103.02 36.078C105.486 41.2356 111.323 43.8568 116.934 42.7306C122.409 41.6293 126.267 37.6029 126.764 32.1413C127.085 28.6032 126.98 25.0253 126.975 21.4623C127.045 17.5605 126.95 14.1968 126.95 10.275Z" fill="white"/>
</g>
<defs>
<clipPath id="clip0_232_217">
<rect width="127" height="43" fill="white"/>
</clipPath>
</defs>
</svg>
