<svg width="253" height="87" viewBox="0 0 253 87" fill="none" xmlns="http://www.w3.org/2000/svg">
<g clip-path="url(#clip0_232_207)">
<path d="M78.8098 82.69C73.8098 82.72 69.0598 81.53 64.3398 80.22C60.1498 79.05 56.0598 77.6 51.8198 76.54C46.4698 75.21 41.1298 75.01 35.7898 76.49C32.6098 77.37 29.7198 78.74 27.1498 80.63C25.7598 81.66 23.7998 81.59 22.5698 80.52C21.3398 79.45 21.2398 77.73 22.4298 76.47C27.1798 71.44 33.2198 68.45 40.5898 67.61C45.2298 67.08 49.7198 67.86 54.1698 68.93C55.1198 69.16 56.0698 69.41 57.0198 69.66C57.1998 69.71 57.4298 69.84 57.5698 69.68C57.7098 69.51 57.4998 69.36 57.3998 69.22C56.3798 67.72 55.5898 66.15 55.4398 64.38C55.3298 63.14 56.1098 61.93 57.3798 61.39C58.6298 60.86 60.2298 61.08 61.2298 61.96C61.5998 62.28 61.9898 62.61 62.2698 62.99C64.2498 65.72 67.1298 67.44 70.3798 68.74C73.7998 70.11 77.3798 70.87 81.1298 70.91C86.7898 70.97 91.8298 69.4 96.2598 66.31C98.7498 64.58 100.88 62.53 102.71 60.24C103.58 59.15 105.16 58.69 106.5 59.11C107.85 59.53 108.62 60.6 108.59 61.99C108.57 63.21 108.05 64.29 107.48 65.36C105.22 69.55 102.46 73.42 98.5098 76.52C93.7898 80.22 88.3298 82.41 81.9998 82.77C80.9298 82.82 79.8698 82.72 78.8098 82.69Z" fill="#28C964"/>
<path d="M126.03 61.5302C126.03 67.6902 126.03 74.0902 126.03 80.5702C121.58 80.5702 117.34 80.5702 112.98 80.5702C112.96 80.0102 112.91 79.5002 112.91 78.9802C112.91 66.3102 112.89 53.6302 112.91 40.9602C112.93 28.5302 122.84 17.5602 135.21 16.1302C144.52 15.0602 152.53 17.6402 158.81 24.7002C169.64 36.8802 166.16 55.4502 151.68 63.0402C145.95 66.0402 139.88 67.2102 133.61 65.3002C130.97 64.5102 128.6 62.8402 126.03 61.5302ZM138.62 54.2702C145.93 54.3502 151.97 48.4602 152.06 41.1402C152.15 33.9102 146.16 27.8602 138.84 27.7702C131.62 27.6802 125.6 33.6002 125.52 40.8602C125.44 48.2502 131.23 54.1802 138.62 54.2702Z" fill="#12423B"/>
<path d="M52.1499 34.8299C47.5099 34.8299 43.2399 34.8599 38.9699 34.7899C38.5399 34.7799 37.9899 34.3099 37.7199 33.8999C33.5399 27.6699 25.7699 25.9499 19.3499 29.8499C14.5899 32.7399 12.1799 38.6999 13.5399 44.2099C14.9199 49.7599 19.9199 53.9099 25.4999 54.2399C30.5699 54.5399 34.3799 52.4099 37.3099 48.4099C37.5599 48.0699 37.9899 47.6299 38.3399 47.6299C42.7899 47.5799 47.2399 47.5899 51.8399 47.5899C50.7099 51.4899 48.8599 54.8099 46.1899 57.6399C41.3399 62.7899 35.3999 65.6299 28.3099 66.0699C19.6299 66.6099 12.1999 63.8599 6.39993 57.3599C-3.69007 46.0399 -1.62007 29.4399 10.8199 20.7199C24.2799 11.2899 43.6099 16.1499 50.5399 30.7299C51.1399 31.9699 51.5499 33.2899 52.1499 34.8299Z" fill="#12423B"/>
<path d="M57.6299 17.3701C61.9699 17.3701 66.1699 17.3701 70.6199 17.3701C70.6199 17.9501 70.6199 18.5101 70.6199 19.0601C70.6199 26.2601 70.5599 33.4601 70.6599 40.6601C70.6899 42.6501 70.9599 44.6901 71.4699 46.6201C72.7499 51.4301 76.7099 54.3001 81.6999 54.2701C86.6599 54.2401 90.6099 51.3101 91.8399 46.4901C92.3099 44.6501 92.5299 42.7101 92.5499 40.8101C92.6299 33.6101 92.5799 26.4101 92.5799 19.2101C92.5799 18.6401 92.5799 18.0701 92.5799 17.4101C96.9699 17.4101 101.22 17.4101 105.62 17.4101C105.65 17.7701 105.72 18.1801 105.72 18.5901C105.72 26.4601 105.94 34.3401 105.66 42.2001C105.31 51.7501 101.24 59.3701 92.4399 63.7301C80.0299 69.8801 62.3399 64.9501 58.2599 47.4101C57.8299 45.5601 57.5999 43.6201 57.5899 41.7101C57.5099 33.9801 57.5599 26.2501 57.5599 18.5301C57.5499 18.2001 57.5899 17.8701 57.6299 17.3701Z" fill="#12423B"/>
<path d="M174.82 28.4701C172.9 28.4701 171.24 28.4701 169.5 28.4701C169.5 24.7201 169.5 21.1001 169.5 17.3301C171.23 17.3301 172.89 17.3301 174.68 17.3301C175.04 10.9801 177.62 6.01013 182.97 2.59013C187.23 -0.129874 191.92 -0.159874 196.88 0.110126C196.88 3.39013 196.91 6.59013 196.82 9.79013C196.81 10.0701 196.05 10.5101 195.59 10.5801C193.39 10.8901 191.4 11.6101 189.76 13.1401C188.63 14.1901 187.94 15.4601 187.95 17.2501C190.89 17.2501 193.79 17.2501 196.79 17.2501C196.79 21.0701 196.79 24.6801 196.79 28.4401C193.85 28.4401 190.99 28.4401 187.92 28.4401C187.92 40.6001 187.92 52.6101 187.92 64.7101C183.47 64.7101 179.23 64.7101 174.82 64.7101C174.82 52.6701 174.82 40.6901 174.82 28.4701Z" fill="#12423B"/>
<path d="M252.73 20.6201C252.73 20.2101 252.67 19.8001 252.64 19.4201C248.25 19.4201 244 19.4201 239.6 19.4201C239.6 20.0801 239.6 20.6501 239.6 21.2201C239.6 28.4201 239.64 35.6201 239.57 42.8201C239.55 44.6701 239.34 46.5701 238.89 48.3601C237.69 53.2601 233.74 56.2501 228.72 56.2901C223.68 56.3301 219.73 53.4201 218.45 48.5101C217.96 46.6301 217.69 44.6401 217.67 42.6901C217.58 35.4901 217.63 28.2901 217.63 21.0901C217.63 20.5401 217.63 19.9801 217.63 19.3901C213.19 19.3901 208.99 19.3901 204.65 19.3901C204.61 19.8801 204.56 20.2101 204.56 20.5401C204.56 28.2701 204.51 36.0001 204.59 43.7201C204.61 45.6201 204.84 47.5601 205.27 49.4201C209.32 66.9201 226.99 71.9101 239.44 65.7601C239.46 65.7501 239.47 65.7401 239.48 65.7301C238.4 69.6701 235.27 73.1101 231.39 74.3401C226.6 75.8601 221.32 74.2401 218.12 70.3601C217.75 69.9101 217.03 69.5201 216.46 69.5001C212.66 69.3501 208.86 69.3101 205.05 69.2501C204.71 69.2401 204.37 69.3101 203.85 69.3601C204.3 70.4701 204.64 71.4601 205.09 72.4001C210 82.7501 221.62 88.0101 232.79 85.7501C243.69 83.5401 251.37 75.4601 252.36 64.5001C253 57.4001 252.79 50.2201 252.78 43.0701C252.92 35.2401 252.73 28.4901 252.73 20.6201Z" fill="#12423B"/>
</g>
<defs>
<clipPath id="clip0_232_207">
<rect width="252.83" height="86.29" fill="white"/>
</clipPath>
</defs>
</svg>
