<svg width="32" height="32" viewBox="0 0 32 32" fill="none" xmlns="http://www.w3.org/2000/svg">
<g filter="url(#filter0_d_32_993)">
<g clip-path="url(#clip0_32_993)">
<path d="M16 2C18.717 2 19.056 2.01 20.122 2.06C21.187 2.11 21.912 2.277 22.55 2.525C23.21 2.779 23.766 3.123 24.322 3.678C24.8305 4.1779 25.224 4.78259 25.475 5.45C25.722 6.087 25.89 6.813 25.94 7.878C25.987 8.944 26 9.283 26 12C26 14.717 25.99 15.056 25.94 16.122C25.89 17.187 25.722 17.912 25.475 18.55C25.2247 19.2178 24.8311 19.8226 24.322 20.322C23.822 20.8303 23.2173 21.2238 22.55 21.475C21.913 21.722 21.187 21.89 20.122 21.94C19.056 21.987 18.717 22 16 22C13.283 22 12.944 21.99 11.878 21.94C10.813 21.89 10.088 21.722 9.45 21.475C8.78233 21.2245 8.17753 20.8309 7.678 20.322C7.16941 19.8222 6.77593 19.2175 6.525 18.55C6.277 17.913 6.11 17.187 6.06 16.122C6.013 15.056 6 14.717 6 12C6 9.283 6.01 8.944 6.06 7.878C6.11 6.812 6.277 6.088 6.525 5.45C6.77524 4.78218 7.1688 4.17732 7.678 3.678C8.17767 3.16923 8.78243 2.77573 9.45 2.525C10.088 2.277 10.812 2.11 11.878 2.06C12.944 2.013 13.283 2 16 2ZM16 7C14.6739 7 13.4021 7.52678 12.4645 8.46447C11.5268 9.40215 11 10.6739 11 12C11 13.3261 11.5268 14.5979 12.4645 15.5355C13.4021 16.4732 14.6739 17 16 17C17.3261 17 18.5979 16.4732 19.5355 15.5355C20.4732 14.5979 21 13.3261 21 12C21 10.6739 20.4732 9.40215 19.5355 8.46447C18.5979 7.52678 17.3261 7 16 7ZM22.5 6.75C22.5 6.41848 22.3683 6.10054 22.1339 5.86612C21.8995 5.6317 21.5815 5.5 21.25 5.5C20.9185 5.5 20.6005 5.6317 20.3661 5.86612C20.1317 6.10054 20 6.41848 20 6.75C20 7.08152 20.1317 7.39946 20.3661 7.63388C20.6005 7.8683 20.9185 8 21.25 8C21.5815 8 21.8995 7.8683 22.1339 7.63388C22.3683 7.39946 22.5 7.08152 22.5 6.75ZM16 9C16.7956 9 17.5587 9.31607 18.1213 9.87868C18.6839 10.4413 19 11.2044 19 12C19 12.7956 18.6839 13.5587 18.1213 14.1213C17.5587 14.6839 16.7956 15 16 15C15.2044 15 14.4413 14.6839 13.8787 14.1213C13.3161 13.5587 13 12.7956 13 12C13 11.2044 13.3161 10.4413 13.8787 9.87868C14.4413 9.31607 15.2044 9 16 9Z" fill="white"/>
</g>
</g>
<defs>
<filter id="filter0_d_32_993" x="0" y="0" width="32" height="32" filterUnits="userSpaceOnUse" color-interpolation-filters="sRGB">
<feFlood flood-opacity="0" result="BackgroundImageFix"/>
<feColorMatrix in="SourceAlpha" type="matrix" values="0 0 0 0 0 0 0 0 0 0 0 0 0 0 0 0 0 0 127 0" result="hardAlpha"/>
<feOffset dy="4"/>
<feGaussianBlur stdDeviation="2"/>
<feComposite in2="hardAlpha" operator="out"/>
<feColorMatrix type="matrix" values="0 0 0 0 0 0 0 0 0 0 0 0 0 0 0 0 0 0 0.25 0"/>
<feBlend mode="normal" in2="BackgroundImageFix" result="effect1_dropShadow_32_993"/>
<feBlend mode="normal" in="SourceGraphic" in2="effect1_dropShadow_32_993" result="shape"/>
</filter>
<clipPath id="clip0_32_993">
<rect width="24" height="24" fill="white" transform="translate(4)"/>
</clipPath>
</defs>
</svg>
