<svg width="51" height="51" viewBox="0 0 51 51" fill="none" xmlns="http://www.w3.org/2000/svg">
<g filter="url(#filter0_dd_277_200)">
<path d="M25.5 25.2625C23.4844 25.2625 21.7375 23.65 21.7375 21.5C21.7375 19.4844 23.35 17.7375 25.5 17.7375C27.5156 17.7375 29.2625 19.35 29.2625 21.5C29.2625 23.5156 27.5156 25.2625 25.5 25.2625Z" fill="white"/>
<path fill-rule="evenodd" clip-rule="evenodd" d="M30.0688 12.3625H20.9312C19.8562 12.4969 19.3188 12.6312 18.9156 12.7656C18.3781 12.9 17.975 13.1687 17.5719 13.5719C17.2529 13.8909 17.1022 14.2098 16.92 14.5954C16.872 14.697 16.8217 14.8035 16.7656 14.9156C16.7448 14.978 16.7208 15.0436 16.6951 15.1139C16.5545 15.4979 16.3625 16.0225 16.3625 16.9312V26.0687C16.4969 27.1437 16.6312 27.6812 16.7656 28.0844C16.9 28.6219 17.1687 29.025 17.5719 29.4281C17.8909 29.7471 18.2099 29.8978 18.5954 30.08C18.6971 30.128 18.8034 30.1783 18.9156 30.2344C18.978 30.2552 19.0436 30.2792 19.1139 30.3049C19.4979 30.4455 20.0226 30.6375 20.9312 30.6375H30.0688C31.1437 30.5031 31.6812 30.3687 32.0844 30.2344C32.6219 30.1 33.025 29.8312 33.4281 29.4281C33.7471 29.1091 33.8978 28.7901 34.08 28.4046C34.128 28.3029 34.1783 28.1965 34.2344 28.0844C34.2552 28.022 34.2792 27.9564 34.3049 27.8861C34.4455 27.5021 34.6375 26.9774 34.6375 26.0687V16.9312C34.5031 15.8562 34.3687 15.3187 34.2344 14.9156C34.1 14.3781 33.8312 13.975 33.4281 13.5719C33.1091 13.2529 32.7901 13.1022 32.4046 12.92C32.303 12.872 32.1964 12.8216 32.0844 12.7656C32.022 12.7448 31.9564 12.7208 31.8861 12.6951C31.5021 12.5545 30.9774 12.3625 30.0688 12.3625ZM25.5 15.7219C22.275 15.7219 19.7219 18.275 19.7219 21.5C19.7219 24.725 22.275 27.2781 25.5 27.2781C28.725 27.2781 31.2781 24.725 31.2781 21.5C31.2781 18.275 28.725 15.7219 25.5 15.7219ZM32.7563 15.5875C32.7563 16.3296 32.1546 16.9312 31.4125 16.9312C30.6704 16.9312 30.0688 16.3296 30.0688 15.5875C30.0688 14.8454 30.6704 14.2437 31.4125 14.2437C32.1546 14.2437 32.7563 14.8454 32.7563 15.5875Z" fill="white"/>
<path fill-rule="evenodd" clip-rule="evenodd" d="M4 21.5C4 9.62588 13.6259 0 25.5 0C37.3741 0 47 9.62588 47 21.5C47 33.3741 37.3741 43 25.5 43C13.6259 43 4 33.3741 4 21.5ZM20.9312 10.3469H30.0688C31.2781 10.4812 32.0844 10.6156 32.7563 10.8844C33.5625 11.2875 34.1 11.5562 34.7719 12.2281C35.4438 12.9 35.8469 13.5719 36.1156 14.2437C36.3844 14.9156 36.6531 15.7219 36.6531 16.9312V26.0687C36.5187 27.2781 36.3844 28.0844 36.1156 28.7562C35.7125 29.5625 35.4438 30.1 34.7719 30.7719C34.1 31.4437 33.4281 31.8469 32.7563 32.1156C32.0844 32.3844 31.2781 32.6531 30.0688 32.6531H20.9312C19.7219 32.5187 18.9156 32.3844 18.2438 32.1156C17.4375 31.7125 16.9 31.4437 16.2281 30.7719C15.5563 30.1 15.1531 29.4281 14.8844 28.7562C14.6156 28.0844 14.3469 27.2781 14.3469 26.0687V16.9312C14.4812 15.7219 14.6156 14.9156 14.8844 14.2437C15.2875 13.4375 15.5563 12.9 16.2281 12.2281C16.9 11.5562 17.5719 11.1531 18.2438 10.8844C18.9156 10.6156 19.7219 10.3469 20.9312 10.3469Z" fill="white"/>
</g>
<defs>
<filter id="filter0_dd_277_200" x="0" y="0" width="51" height="51" filterUnits="userSpaceOnUse" color-interpolation-filters="sRGB">
<feFlood flood-opacity="0" result="BackgroundImageFix"/>
<feColorMatrix in="SourceAlpha" type="matrix" values="0 0 0 0 0 0 0 0 0 0 0 0 0 0 0 0 0 0 127 0" result="hardAlpha"/>
<feOffset dy="4"/>
<feGaussianBlur stdDeviation="2"/>
<feComposite in2="hardAlpha" operator="out"/>
<feColorMatrix type="matrix" values="0 0 0 0 0 0 0 0 0 0 0 0 0 0 0 0 0 0 0.25 0"/>
<feBlend mode="normal" in2="BackgroundImageFix" result="effect1_dropShadow_277_200"/>
<feColorMatrix in="SourceAlpha" type="matrix" values="0 0 0 0 0 0 0 0 0 0 0 0 0 0 0 0 0 0 127 0" result="hardAlpha"/>
<feOffset dy="4"/>
<feGaussianBlur stdDeviation="2"/>
<feComposite in2="hardAlpha" operator="out"/>
<feColorMatrix type="matrix" values="0 0 0 0 0 0 0 0 0 0 0 0 0 0 0 0 0 0 0.25 0"/>
<feBlend mode="normal" in2="effect1_dropShadow_277_200" result="effect2_dropShadow_277_200"/>
<feBlend mode="normal" in="SourceGraphic" in2="effect2_dropShadow_277_200" result="shape"/>
</filter>
</defs>
</svg>
