<svg width="46" height="46" viewBox="0 0 46 46" fill="none" xmlns="http://www.w3.org/2000/svg">
<path d="M23 42.1671C33.5855 42.1671 42.1667 38.3056 42.1667 33.5421C42.1667 31.1144 39.9377 28.9209 36.3504 27.3535C34.1614 31.3705 30.8233 34.833 26.5833 36.645C24.3042 37.6189 21.6959 37.6189 19.4168 36.645C15.1767 34.833 11.8386 31.3705 9.64966 27.3535C6.06237 28.9209 3.83337 31.1144 3.83337 33.5421C3.83337 38.3056 12.4146 42.1671 23 42.1671Z" fill="#0A2E36"/>
<path fill-rule="evenodd" clip-rule="evenodd" d="M9.58337 16.3194C9.58337 9.42335 15.5902 3.83301 23 3.83301C30.4099 3.83301 36.4167 9.42335 36.4167 16.3194C36.4167 23.1614 32.1346 31.1454 25.4535 34.0005C23.896 34.6661 22.104 34.6661 20.5466 34.0005C13.8655 31.1454 9.58337 23.1614 9.58337 16.3194ZM23 21.083C25.1171 21.083 26.8334 19.3668 26.8334 17.2497C26.8334 15.1326 25.1171 13.4163 23 13.4163C20.8829 13.4163 19.1667 15.1326 19.1667 17.2497C19.1667 19.3668 20.8829 21.083 23 21.083Z" fill="#0A2E36"/>
</svg>
