<svg width="53" height="53" viewBox="0 0 53 53" fill="none" xmlns="http://www.w3.org/2000/svg">
<path fill-rule="evenodd" clip-rule="evenodd" d="M21.1833 7.06759C20.6455 7.52589 20.3766 7.75506 20.0894 7.94754C19.4311 8.38877 18.6918 8.69501 17.9143 8.84851C17.5751 8.91547 17.2229 8.94357 16.5186 8.99978C14.7489 9.14101 13.864 9.21162 13.1258 9.47237C11.4183 10.0755 10.0752 11.4185 9.47213 13.126C9.21137 13.8642 9.14076 14.7491 8.99954 16.5188C8.94333 17.2232 8.91522 17.5754 8.84826 17.9145C8.69476 18.692 8.38853 19.4314 7.9473 20.0897C7.75481 20.3769 7.52566 20.6458 7.06735 21.1836C5.91584 22.5348 5.34006 23.2104 5.00243 23.9168C4.22152 25.5506 4.22152 27.45 5.00243 29.0838C5.34006 29.7902 5.91583 30.4659 7.06735 31.8171C7.52561 32.3548 7.75482 32.6238 7.9473 32.911C8.38853 33.5693 8.69476 34.3086 8.84826 35.0861C8.91522 35.4253 8.94333 35.7775 8.99954 36.4818C9.14076 38.2515 9.21137 39.1364 9.47213 39.8746C10.0752 41.5821 11.4183 42.9252 13.1258 43.5283C13.864 43.789 14.7489 43.8596 16.5186 44.0009C17.2229 44.0571 17.5751 44.0852 17.9143 44.1521C18.6918 44.3056 19.4311 44.6119 20.0894 45.0531C20.3766 45.2456 20.6455 45.4748 21.1833 45.9331C22.5346 47.0846 23.2102 47.6603 23.9166 47.998C25.5504 48.7789 27.4498 48.7789 29.0836 47.998C29.79 47.6603 30.4656 47.0846 31.8169 45.9331C32.3547 45.4748 32.6236 45.2456 32.9107 45.0531C33.5691 44.6119 34.3084 44.3056 35.0859 44.1521C35.425 44.0852 35.7772 44.0571 36.4816 44.0009C38.2513 43.8596 39.1362 43.789 39.8744 43.5283C41.5819 42.9252 42.9249 41.5821 43.528 39.8746C43.7888 39.1364 43.8594 38.2515 44.0006 36.4818C44.0568 35.7775 44.0849 35.4253 44.1519 35.0861C44.3054 34.3086 44.6116 33.5693 45.0529 32.911C45.2454 32.6238 45.4745 32.3549 45.9328 31.8171C47.0843 30.4659 47.6601 29.7902 47.9977 29.0838C48.7786 27.45 48.7786 25.5506 47.9977 23.9168C47.6601 23.2104 47.0843 22.5348 45.9328 21.1836C45.4745 20.6458 45.2454 20.3769 45.0529 20.0897C44.6116 19.4314 44.3054 18.692 44.1519 17.9145C44.0849 17.5754 44.0568 17.2232 44.0006 16.5188C43.8594 14.7491 43.7888 13.8642 43.528 13.126C42.9249 11.4185 41.5819 10.0755 39.8744 9.47237C39.1362 9.21162 38.2513 9.14101 36.4816 8.99978C35.7772 8.94357 35.425 8.91547 35.0859 8.84851C34.3084 8.69501 33.569 8.38877 32.9107 7.94754C32.6236 7.75506 32.3547 7.5259 31.8169 7.06759C30.4656 5.91607 29.79 5.34031 29.0836 5.00268C27.4498 4.22176 25.5504 4.22176 23.9166 5.00268C23.2102 5.34031 22.5345 5.91608 21.1833 7.06759ZM34.96 18.0415C35.6619 18.7434 35.6619 19.8814 34.96 20.5832L20.5818 34.9614C19.8799 35.6633 18.742 35.6633 18.0401 34.9614C17.3382 34.2596 17.3382 33.1216 18.0401 32.4197L32.4183 18.0415C33.1202 17.3396 34.2581 17.3396 34.96 18.0415ZM34.8873 32.4924C34.8873 33.8159 33.8144 34.8887 32.491 34.8887C31.1675 34.8887 30.0946 33.8159 30.0946 32.4924C30.0946 31.1689 31.1675 30.096 32.491 30.096C33.8144 30.096 34.8873 31.1689 34.8873 32.4924ZM20.5091 22.9069C21.8326 22.9069 22.9055 21.834 22.9055 20.5106C22.9055 19.1871 21.8326 18.1142 20.5091 18.1142C19.1857 18.1142 18.1128 19.1871 18.1128 20.5106C18.1128 21.834 19.1857 22.9069 20.5091 22.9069Z" fill="#0A2E36"/>
</svg>
