<svg width="45" height="45" viewBox="0 0 45 45" fill="none" xmlns="http://www.w3.org/2000/svg">
<path fill-rule="evenodd" clip-rule="evenodd" d="M22.5 41.25C32.8553 41.25 41.25 32.8553 41.25 22.5C41.25 12.1447 32.8553 3.75 22.5 3.75C12.1447 3.75 3.75 12.1447 3.75 22.5C3.75 32.8553 12.1447 41.25 22.5 41.25ZM20.3649 17.5563L20.1191 17.9972C19.8491 18.4815 19.7142 18.7236 19.5037 18.8834C19.2932 19.0431 19.0311 19.1024 18.5069 19.221L18.0297 19.329C16.1849 19.7464 15.2625 19.9551 15.0431 20.6608C14.8236 21.3665 15.4524 22.1018 16.7101 23.5724L17.0354 23.9529C17.3928 24.3708 17.5715 24.5798 17.6519 24.8383C17.7323 25.0968 17.7053 25.3756 17.6512 25.9332L17.602 26.4408C17.4119 28.403 17.3168 29.384 17.8914 29.8202C18.4659 30.2563 19.3295 29.8587 21.0567 29.0634L21.5036 28.8576C21.9944 28.6316 22.2399 28.5186 22.5 28.5186C22.7601 28.5186 23.0056 28.6316 23.4964 28.8576L23.9432 29.0634C25.6705 29.8587 26.5341 30.2563 27.1086 29.8202C27.6832 29.384 27.5881 28.4029 27.398 26.4408L27.3488 25.9332C27.2947 25.3756 27.2677 25.0968 27.3481 24.8383C27.4285 24.5798 27.6072 24.3708 27.9646 23.9529L28.2899 23.5724C29.5476 22.1018 30.1764 21.3665 29.9569 20.6608C29.7375 19.9551 28.8151 19.7464 26.9703 19.329L26.4931 19.221C25.9689 19.1024 25.7068 19.0431 25.4963 18.8834C25.2858 18.7236 25.1509 18.4815 24.8809 17.9972L24.6351 17.5563C23.6851 15.8521 23.2101 15 22.5 15C21.7899 15 21.3149 15.8521 20.3649 17.5563Z" fill="#0A2E36"/>
</svg>
